#N canvas 0 0 450 300 10;
#N canvas 392 137 521 471 ADSR 0;
#X obj 103 104 cnv 15 74 142 empty empty empty 20 12 0 14 -233017 -66577
0;
#X obj 228 17 inlet~;
#X obj 352 421 outlet~;
#X obj 107 142 knob 32 32 0 127 0 1 empty empty empty 0 -8 0 8 -262144
-4160 -1 800 1;
#X text 115 116 ENV-ADSR;
#X text 102 99 GATE;
#X text 103 232 OUT;
#X obj 144 142 knob 32 32 0 127 0 1 empty empty empty 0 -8 0 8 -262144
-4160 -1 700 1;
#X obj 106 186 knob 32 32 0 127 0 1 empty empty empty 0 -8 0 8 -262144
-258113 -1 1100 1;
#X obj 143 186 knob 32 32 0 127 0 1 empty empty empty 0 -8 0 8 -262144
-4160 -1 800 1;
#X text 105 126 A;
#X text 141 126 D;
#X text 105 218 S;
#X text 141 217 R;
#X obj 230 274 snapshot~;
#X obj 379 19 inlet~;
#X text 231 35 gate;
#X text 385 39 level;
#X text 363 401 out;
#X text 155 99 LVL;
#X text 91 454 Created by Maciej Odrowaz Sypniewski;
#X obj 119 19 loadbang;
#X msg 278 111 1;
#X obj 60 163 t b;
#N canvas 731 357 450 300 scale 0;
#X obj 84 1 inlet;
#X obj 84 37 / 127;
#X obj 84 72 t f f;
#X obj 84 105 *;
#X obj 84 133 * 2999;
#X obj 85 157 + 1;
#X obj 85 207 outlet;
#X connect 0 0 1 0;
#X connect 1 0 2 0;
#X connect 2 0 3 0;
#X connect 2 1 3 1;
#X connect 3 0 4 0;
#X connect 4 0 5 0;
#X connect 5 0 6 0;
#X restore 371 169 pd scale;
#N canvas 731 357 450 300 scale 0;
#X obj 84 1 inlet;
#X obj 84 37 / 127;
#X obj 84 72 t f f;
#X obj 84 105 *;
#X obj 84 133 * 2999;
#X obj 85 157 + 1;
#X obj 85 207 outlet;
#X connect 0 0 1 0;
#X connect 1 0 2 0;
#X connect 2 0 3 0;
#X connect 2 1 3 1;
#X connect 3 0 4 0;
#X connect 4 0 5 0;
#X connect 5 0 6 0;
#X restore 391 220 pd scale;
#N canvas 731 357 450 300 scale 0;
#X obj 84 1 inlet;
#X obj 84 37 / 127;
#X obj 84 72 t f f;
#X obj 84 105 *;
#X obj 84 133 * 2999;
#X obj 85 157 + 1;
#X obj 85 207 outlet;
#X connect 0 0 1 0;
#X connect 1 0 2 0;
#X connect 2 0 3 0;
#X connect 2 1 3 1;
#X connect 3 0 4 0;
#X connect 4 0 5 0;
#X connect 5 0 6 0;
#X restore 432 291 pd scale;
#N canvas 271 11 872 711 midi-asdr-x 0;
#X obj 468 298 timer;
#X obj 538 288 +;
#X obj 538 259 f;
#X obj 467 224 t b b;
#X obj 469 391 >= 0;
#X obj 469 346 t f f;
#X obj 427 535 f;
#X msg 427 568 0 \$1;
#X obj 569 507 f;
#X obj 569 532 pack f f f;
#X obj 375 633 vline~;
#X obj 469 420 sel 0 1;
#X msg 569 561 \$1 \$2 \, 0 \$3 \$2;
#X obj 469 323 expr $f2-$f1;
#X obj 597 368 min;
#X obj 597 389 min;
#X text 168 269 [attack \, decay \, sustain];
#X text 480 120 [release];
#X obj 197 502 pack f f f f f;
#X msg 197 527 \$1 \$2 \, \$3 \$4 \$5;
#X obj 246 396 *;
#X obj 188 351 t f f;
#X obj 662 446 *;
#X obj 375 670 outlet~;
#X obj 467 186 sel 1 0;
#X obj 22 23 inlet velocity;
#X obj 114 23 inlet A;
#X obj 163 23 inlet D;
#X obj 213 24 inlet S;
#X obj 262 24 inlet R;
#X text 638 64 attack \, decay \, release = ms;
#X text 636 13 UNITS:;
#X text 635 27 velocity: noteoff = 0;
#X text 640 79 sustain = 0->1;
#X obj 22 75 / 127;
#X obj 22 51 clip 0 127;
#X text 694 42 full volume = 127;
#X obj 467 165 > 0;
#X obj 161 320 sel 0;
#X connect 0 0 13 0;
#X connect 1 0 13 1;
#X connect 2 0 1 0;
#X connect 3 0 0 0;
#X connect 3 1 2 0;
#X connect 4 0 11 0;
#X connect 5 0 4 0;
#X connect 5 1 14 0;
#X connect 6 0 7 0;
#X connect 7 0 10 0;
#X connect 8 0 9 0;
#X connect 9 0 12 0;
#X connect 10 0 23 0;
#X connect 11 0 6 0;
#X connect 11 1 8 0;
#X connect 12 0 10 0;
#X connect 13 0 5 0;
#X connect 14 0 15 0;
#X connect 15 0 9 1;
#X connect 18 0 19 0;
#X connect 19 0 10 0;
#X connect 20 0 18 2;
#X connect 21 0 18 0;
#X connect 21 1 20 0;
#X connect 22 0 8 1;
#X connect 24 0 3 0;
#X connect 24 1 0 1;
#X connect 25 0 35 0;
#X connect 26 0 18 1;
#X connect 26 0 18 4;
#X connect 26 0 2 1;
#X connect 27 0 18 3;
#X connect 27 0 14 1;
#X connect 27 0 1 1;
#X connect 28 0 20 1;
#X connect 28 0 22 1;
#X connect 29 0 15 1;
#X connect 29 0 9 2;
#X connect 29 0 6 1;
#X connect 34 0 38 0;
#X connect 34 0 37 0;
#X connect 34 0 22 0;
#X connect 35 0 34 0;
#X connect 37 0 24 0;
#X connect 38 1 21 0;
#X restore 351 381 pd midi-asdr-x;
#X obj 228 188 *~;
#X obj 244 135 sig~;
#X obj 411 251 / 127;
#X obj 240 217 *~ 127;
#X obj 240 248 threshold~ 2 1 1 1;
#X obj 230 320 * 127;
#X obj 244 66 *~ 100;
#X obj 244 87 threshold~ 2 1 1 1;
#X msg 244 111 0;
#X obj 244 161 +~;
#X connect 1 0 28 0;
#X connect 3 0 24 0;
#X connect 7 0 25 0;
#X connect 8 0 30 0;
#X connect 9 0 26 0;
#X connect 14 0 33 0;
#X connect 15 0 34 0;
#X connect 15 0 37 1;
#X connect 21 0 22 0;
#X connect 21 0 23 0;
#X connect 22 0 29 0;
#X connect 23 0 3 0;
#X connect 23 0 7 0;
#X connect 23 0 8 0;
#X connect 23 0 9 0;
#X connect 24 0 27 1;
#X connect 25 0 27 2;
#X connect 26 0 27 4;
#X connect 27 0 2 0;
#X connect 28 0 14 0;
#X connect 28 0 31 0;
#X connect 29 0 37 0;
#X connect 30 0 27 3;
#X connect 31 0 32 0;
#X connect 32 0 14 0;
#X connect 32 1 14 0;
#X connect 33 0 27 0;
#X connect 34 0 35 0;
#X connect 35 0 36 0;
#X connect 35 1 22 0;
#X connect 36 0 29 0;
#X connect 37 0 28 1;
#X coords 0 -1 1 1 80 150 1 100 100;
#X restore 62 56 pd ADSR;
