#N canvas 428 205 450 300 10;
#N canvas 0 0 545 317 midiin 0;
#X obj 200 255 outlet~;
#X obj 343 255 outlet~;
#X obj 439 254 outlet~;
#X obj 200 25 notein;
#X obj 410 163 sel 0;
#X text 346 233 velocity;
#X text 214 237 pitch;
#X msg 438 187 1 0 \, 0 0 1;
#X obj 438 210 vline~;
#X obj 342 182 / 127;
#X obj 342 206 sig~;
#X obj 200 173 / 127;
#X obj 200 207 sig~;
#X obj 242 54 == 1;
#X obj 199 83 *;
#X obj 227 83 *;
#X text 442 234 triger;
#X obj 102 105 cnv 15 75 110 empty empty empty 20 12 0 14 -233017 -66577
0;
#X obj 123 169 bng 15 250 50 0 empty empty trig 17 7 0 10 -1 -4160
-1;
#X floatatom 132 130 3 1 16 1 ch - -;
#X text 100 201 ptch;
#X text 132 201 vel;
#X text 158 201 trg;
#X text 102 128 midi;
#X text 115 106 MIDI_IN;
#X obj 302 39 loadbang;
#X msg 302 64 1;
#X obj 199 122 stripnote;
#X text 304 275 noteon velocity only;
#X text 2 299 Created by Maciej Odrowaz Sypniewski;
#X connect 3 0 14 0;
#X connect 3 1 15 0;
#X connect 3 2 13 0;
#X connect 4 1 7 0;
#X connect 4 1 18 0;
#X connect 7 0 8 0;
#X connect 8 0 2 0;
#X connect 9 0 10 0;
#X connect 10 0 1 0;
#X connect 11 0 12 0;
#X connect 12 0 0 0;
#X connect 13 0 14 1;
#X connect 13 0 15 1;
#X connect 14 0 27 0;
#X connect 15 0 27 1;
#X connect 19 0 13 1;
#X connect 25 0 26 0;
#X connect 26 0 19 0;
#X connect 27 0 11 0;
#X connect 27 1 9 0;
#X connect 27 1 4 0;
#X coords 0 -1 1 1 80 120 1 100 100;
#X restore 69 43 pd midiin;
