#N canvas 0 0 450 300 10;
#N canvas 531 98 815 474 midiin4 0;
#X obj 199 415 outlet~;
#X obj 294 414 outlet~;
#X obj 200 25 notein;
#X obj 266 313 sel 0;
#X text 213 397 pitch;
#X obj 293 370 vline~;
#X obj 199 339 / 127;
#X obj 199 373 sig~;
#X obj 238 53 == 1;
#X obj 200 83 *;
#X obj 228 83 *;
#X obj 103 104 cnv 15 74 142 empty empty empty 20 12 0 14 -233017 -66577
0;
#X obj 199 314 stripnote;
#X text 103 456 Created by Maciej Odrowaz Sypniewski;
#X obj 116 146 nbx 3 14 1 16 0 1 empty empty MIDI_CH -3 -8 0 10 -262144
-1 -1 1 256;
#X msg 266 346 0 0;
#X msg 293 347 1 0;
#X text 297 394 gate;
#X obj 108 173 tgl 15 0 empty empty G1 17 7 0 10 -1 -261234 -1 0 1
;
#X text 406 47 midi input (quad);
#X obj 200 118 poly 4 1;
#X obj 199 143 pack 0 0 0;
#X obj 199 171 route 1 2 3 4;
#X obj 199 278 unpack 0 0;
#X obj 352 413 outlet~;
#X obj 447 412 outlet~;
#X obj 419 311 sel 0;
#X text 366 395 pitch;
#X obj 446 368 vline~;
#X obj 352 337 / 127;
#X obj 352 371 sig~;
#X obj 352 312 stripnote;
#X msg 419 344 0 0;
#X msg 446 345 1 0;
#X text 450 392 gate;
#X obj 352 276 unpack 0 0;
#X obj 505 411 outlet~;
#X obj 600 410 outlet~;
#X obj 572 309 sel 0;
#X text 519 393 pitch;
#X obj 599 366 vline~;
#X obj 505 335 / 127;
#X obj 505 369 sig~;
#X obj 505 310 stripnote;
#X msg 572 342 0 0;
#X msg 599 343 1 0;
#X text 603 390 gate;
#X obj 505 274 unpack 0 0;
#X obj 658 409 outlet~;
#X obj 753 408 outlet~;
#X obj 725 307 sel 0;
#X text 672 391 pitch;
#X obj 752 364 vline~;
#X obj 658 333 / 127;
#X obj 658 367 sig~;
#X obj 658 308 stripnote;
#X msg 725 340 0 0;
#X msg 752 341 1 0;
#X text 756 388 gate;
#X obj 658 272 unpack 0 0;
#X obj 144 173 tgl 15 0 empty empty G2 17 7 0 10 -1 -261234 -1 0 1
;
#X obj 108 210 tgl 15 0 empty empty G3 17 7 0 10 -1 -261234 -1 0 1
;
#X obj 144 210 tgl 15 0 empty empty G4 17 7 0 10 -1 -261234 -1 0 1
;
#X text 112 106 MIDI-IN4;
#X text 104 232 PG PG PG PG;
#X connect 2 0 9 0;
#X connect 2 1 10 0;
#X connect 2 2 8 0;
#X connect 3 0 15 0;
#X connect 3 1 16 0;
#X connect 5 0 1 0;
#X connect 6 0 7 0;
#X connect 7 0 0 0;
#X connect 8 0 9 1;
#X connect 8 0 10 1;
#X connect 9 0 20 0;
#X connect 10 0 20 1;
#X connect 12 0 6 0;
#X connect 14 0 8 1;
#X connect 15 0 5 0;
#X connect 15 0 18 0;
#X connect 16 0 5 0;
#X connect 16 0 18 0;
#X connect 20 0 21 0;
#X connect 20 1 21 1;
#X connect 20 2 21 2;
#X connect 21 0 22 0;
#X connect 22 0 23 0;
#X connect 22 1 35 0;
#X connect 22 2 47 0;
#X connect 22 3 59 0;
#X connect 23 0 12 0;
#X connect 23 1 12 1;
#X connect 23 1 3 0;
#X connect 26 0 32 0;
#X connect 26 1 33 0;
#X connect 28 0 25 0;
#X connect 29 0 30 0;
#X connect 30 0 24 0;
#X connect 31 0 29 0;
#X connect 32 0 28 0;
#X connect 32 0 60 0;
#X connect 33 0 28 0;
#X connect 33 0 60 0;
#X connect 35 0 31 0;
#X connect 35 1 31 1;
#X connect 35 1 26 0;
#X connect 38 0 44 0;
#X connect 38 1 45 0;
#X connect 40 0 37 0;
#X connect 41 0 42 0;
#X connect 42 0 36 0;
#X connect 43 0 41 0;
#X connect 44 0 40 0;
#X connect 44 0 61 0;
#X connect 45 0 40 0;
#X connect 45 0 61 0;
#X connect 47 0 43 0;
#X connect 47 1 43 1;
#X connect 47 1 38 0;
#X connect 50 0 56 0;
#X connect 50 1 57 0;
#X connect 52 0 49 0;
#X connect 53 0 54 0;
#X connect 54 0 48 0;
#X connect 55 0 53 0;
#X connect 56 0 52 0;
#X connect 56 0 62 0;
#X connect 57 0 52 0;
#X connect 57 0 62 0;
#X connect 59 0 55 0;
#X connect 59 1 55 1;
#X connect 59 1 50 0;
#X coords 0 -1 1 1 80 150 1 100 100;
#X restore 107 47 pd midiin4;
#X text 60 215 gate outputs;
