#N canvas 0 0 450 300 10;
#X text 133 198 gate outputs;
#N canvas 423 174 819 477 midiin2 0;
#X obj 199 374 outlet~;
#X obj 294 373 outlet~;
#X obj 200 25 notein;
#X obj 266 272 sel 0;
#X text 213 356 pitch;
#X obj 293 329 vline~;
#X obj 199 298 / 127;
#X obj 199 332 sig~;
#X obj 238 53 == 1;
#X obj 200 83 *;
#X obj 228 83 *;
#X obj 103 104 cnv 15 74 142 empty empty empty 20 12 0 14 -233017 -66577
0;
#X obj 199 273 stripnote;
#X text 103 456 Created by Maciej Odrowaz Sypniewski;
#X obj 116 146 nbx 3 14 1 16 0 1 empty empty MIDI_CH -3 -8 0 10 -262144
-1 -1 1 256;
#X msg 266 305 0 0;
#X msg 293 306 1 0;
#X text 297 353 gate;
#X obj 115 174 tgl 15 0 empty empty GATE1 17 7 0 10 -1 -261234 -1 0
1;
#X obj 199 143 pack 0 0 0;
#X obj 199 237 unpack 0 0;
#X obj 352 372 outlet~;
#X obj 447 371 outlet~;
#X obj 419 270 sel 0;
#X text 366 354 pitch;
#X obj 446 327 vline~;
#X obj 352 296 / 127;
#X obj 352 330 sig~;
#X obj 352 271 stripnote;
#X msg 419 303 0 0;
#X msg 446 304 1 0;
#X text 450 351 gate;
#X obj 352 235 unpack 0 0;
#X obj 115 201 tgl 15 0 empty empty GATE2 17 7 0 10 -1 -261234 -1 0
1;
#X obj 199 171 route 1 2;
#X text 357 98 midi input (dual);
#X obj 200 118 poly 2 1;
#X text 101 232 P1;
#X text 120 232 G1;
#X text 143 232 P2 G2;
#X text 112 106 MIDI-IN2;
#X connect 2 0 9 0;
#X connect 2 1 10 0;
#X connect 2 2 8 0;
#X connect 3 0 15 0;
#X connect 3 1 16 0;
#X connect 5 0 1 0;
#X connect 6 0 7 0;
#X connect 7 0 0 0;
#X connect 8 0 9 1;
#X connect 8 0 10 1;
#X connect 9 0 36 0;
#X connect 10 0 36 1;
#X connect 12 0 6 0;
#X connect 14 0 8 1;
#X connect 15 0 5 0;
#X connect 15 0 18 0;
#X connect 16 0 5 0;
#X connect 16 0 18 0;
#X connect 19 0 34 0;
#X connect 20 0 12 0;
#X connect 20 1 12 1;
#X connect 20 1 3 0;
#X connect 23 0 29 0;
#X connect 23 1 30 0;
#X connect 25 0 22 0;
#X connect 26 0 27 0;
#X connect 27 0 21 0;
#X connect 28 0 26 0;
#X connect 29 0 25 0;
#X connect 29 0 33 0;
#X connect 30 0 25 0;
#X connect 30 0 33 0;
#X connect 32 0 28 0;
#X connect 32 1 28 1;
#X connect 32 1 23 0;
#X connect 34 0 20 0;
#X connect 34 1 32 0;
#X connect 36 0 19 0;
#X connect 36 1 19 1;
#X connect 36 2 19 2;
#X coords 0 -1 1 1 80 150 1 100 100;
#X restore 80 30 pd midiin2;
