#N canvas 0 0 450 300 10;
#X text 199 221 gate output;
#N canvas 712 378 501 324 MIDI-IN 0;
#X obj 156 246 outlet~;
#X obj 299 246 outlet~;
#X obj 395 245 outlet~;
#X obj 156 16 notein;
#X obj 367 140 sel 0;
#X text 302 224 velocity;
#X text 170 228 pitch;
#X obj 394 201 vline~;
#X obj 298 173 / 127;
#X obj 298 197 sig~;
#X obj 156 164 / 127;
#X obj 156 198 sig~;
#X obj 198 45 == 1;
#X obj 155 74 *;
#X obj 183 74 *;
#X obj 155 113 stripnote;
#X text 260 266 noteon velocity only;
#X text 0 290 Created by Maciej Odrowaz Sypniewski;
#X obj 275 90 nbx 3 14 1 16 0 1 empty empty MIDI_CH -3 -8 0 10 -262144
-1 -1 1 256;
#X msg 367 177 0 0;
#X msg 394 178 1 0;
#X text 398 225 gate;
#X text 296 35 midi input (mono);
#X obj 350 89 tgl 15 0 empty empty GATE 17 7 0 10 -1 -261234 -1 0 1
;
#X connect 3 0 13 0;
#X connect 3 1 14 0;
#X connect 3 2 12 0;
#X connect 4 0 19 0;
#X connect 4 1 20 0;
#X connect 7 0 2 0;
#X connect 8 0 9 0;
#X connect 9 0 1 0;
#X connect 10 0 11 0;
#X connect 11 0 0 0;
#X connect 12 0 13 1;
#X connect 12 0 14 1;
#X connect 13 0 15 0;
#X connect 14 0 15 1;
#X connect 14 0 4 0;
#X connect 15 0 10 0;
#X connect 15 1 8 0;
#X connect 18 0 12 1;
#X connect 19 0 7 0;
#X connect 19 0 23 0;
#X connect 20 0 7 0;
#X connect 20 0 23 0;
#X restore 200 252 pd MIDI-IN;
#N canvas 0 0 665 383 midiin 0;
#X obj 200 255 outlet~;
#X obj 343 255 outlet~;
#X obj 439 254 outlet~;
#X obj 200 25 notein;
#X obj 411 149 sel 0;
#X text 346 233 velocity;
#X text 214 237 pitch;
#X obj 438 210 vline~;
#X obj 342 182 / 127;
#X obj 342 206 sig~;
#X obj 200 173 / 127;
#X obj 200 207 sig~;
#X obj 242 54 == 1;
#X obj 199 83 *;
#X obj 227 83 *;
#X obj 103 104 cnv 15 74 142 empty empty empty 20 12 0 14 -233017 -66577
0;
#X obj 199 122 stripnote;
#X text 304 275 noteon velocity only;
#X text 2 299 Created by Maciej Odrowaz Sypniewski;
#X obj 119 162 nbx 3 14 1 16 0 1 empty empty MIDI_CH -3 -8 0 10 -262144
-1 -1 1 256;
#X text 100 231 PTCH;
#X text 131 231 VEL;
#X msg 411 186 0 0;
#X msg 438 187 1 0;
#X text 442 234 gate;
#X text 157 231 GAT;
#X text 340 44 midi input (mono);
#X obj 121 199 tgl 15 0 empty empty GATE 17 7 0 10 -1 -261234 -1 0
1;
#X text 114 107 MIDI-IN;
#X connect 3 0 13 0;
#X connect 3 1 14 0;
#X connect 3 2 12 0;
#X connect 4 0 22 0;
#X connect 4 1 23 0;
#X connect 7 0 2 0;
#X connect 8 0 9 0;
#X connect 9 0 1 0;
#X connect 10 0 11 0;
#X connect 11 0 0 0;
#X connect 12 0 13 1;
#X connect 12 0 14 1;
#X connect 13 0 16 0;
#X connect 14 0 16 1;
#X connect 14 0 4 0;
#X connect 16 0 10 0;
#X connect 16 1 8 0;
#X connect 19 0 12 1;
#X connect 22 0 7 0;
#X connect 22 0 27 0;
#X connect 23 0 7 0;
#X connect 23 0 27 0;
#X coords 0 -1 1 1 80 150 1 100 100;
#X restore 196 53 pd midiin;
