#N canvas 0 0 450 300 10;
#X text 81 221 trigger output;
#N canvas 704 342 450 316 MIDI-IN-S 0;
#X obj 78 249 outlet~;
#X obj 221 249 outlet~;
#X obj 317 248 outlet~;
#X obj 78 19 notein;
#X obj 288 157 sel 0;
#X text 224 227 velocity;
#X text 92 231 pitch;
#X msg 316 181 1 0 \, 0 0 1;
#X obj 316 204 vline~;
#X obj 220 176 / 127;
#X obj 220 200 sig~;
#X obj 78 167 / 127;
#X obj 78 201 sig~;
#X obj 120 48 == 1;
#X obj 77 77 *;
#X obj 105 77 *;
#X text 320 228 triger;
#X obj 77 116 stripnote;
#X text 182 269 noteon velocity only;
#X obj 214 87 nbx 3 14 1 16 0 1 empty empty MIDI_CH -3 -8 0 10 -262144
-1 -1 1 256;
#X obj 300 86 bng 15 250 50 0 empty empty empty 17 7 0 10 -262144 -1
-1;
#X text 219 38 simple midi input (mono);
#X text 0 298 Created by Maciej Odrowaz Sypniewski;
#X connect 3 0 14 0;
#X connect 3 1 15 0;
#X connect 3 2 13 0;
#X connect 4 1 7 0;
#X connect 4 1 20 0;
#X connect 7 0 8 0;
#X connect 8 0 2 0;
#X connect 9 0 10 0;
#X connect 10 0 1 0;
#X connect 11 0 12 0;
#X connect 12 0 0 0;
#X connect 13 0 14 1;
#X connect 13 0 15 1;
#X connect 14 0 17 0;
#X connect 15 0 17 1;
#X connect 17 0 11 0;
#X connect 17 1 9 0;
#X connect 17 1 4 0;
#X connect 19 0 13 1;
#X restore 82 251 pd MIDI-IN-S;
#N canvas 0 0 521 317 midiins 0;
#X obj 200 255 outlet~;
#X obj 343 255 outlet~;
#X obj 439 254 outlet~;
#X obj 200 25 notein;
#X obj 410 163 sel 0;
#X text 346 233 velocity;
#X text 214 237 pitch;
#X msg 438 187 1 0 \, 0 0 1;
#X obj 438 210 vline~;
#X obj 342 182 / 127;
#X obj 342 206 sig~;
#X obj 200 173 / 127;
#X obj 200 207 sig~;
#X obj 242 54 == 1;
#X obj 199 83 *;
#X obj 227 83 *;
#X text 442 234 triger;
#X obj 103 104 cnv 15 74 142 empty empty empty 20 12 0 14 -233017 -66577
0;
#X obj 121 198 bng 15 250 50 0 empty empty TRIG 17 7 0 10 -1 -258113
-1;
#X obj 199 122 stripnote;
#X text 304 275 noteon velocity only;
#X text 2 299 Created by Maciej Odrowaz Sypniewski;
#X obj 119 162 nbx 3 14 1 16 0 1 empty empty MIDI_CH -3 -8 0 10 -262144
-1 -1 1 256;
#X text 100 231 PTCH;
#X text 131 231 VEL;
#X text 157 231 TRG;
#X text 340 44 simple midi input (mono);
#X text 112 106 MIDI-IN-S;
#X connect 3 0 14 0;
#X connect 3 1 15 0;
#X connect 3 2 13 0;
#X connect 4 1 7 0;
#X connect 4 1 18 0;
#X connect 7 0 8 0;
#X connect 8 0 2 0;
#X connect 9 0 10 0;
#X connect 10 0 1 0;
#X connect 11 0 12 0;
#X connect 12 0 0 0;
#X connect 13 0 14 1;
#X connect 13 0 15 1;
#X connect 14 0 19 0;
#X connect 15 0 19 1;
#X connect 19 0 11 0;
#X connect 19 1 9 0;
#X connect 19 1 4 0;
#X connect 22 0 13 1;
#X coords 0 -1 1 1 80 150 1 100 100;
#X restore 79 53 pd midiins;
