#N canvas 0 0 450 300 10;
#N canvas 570 210 684 300 st-ring 0;
#X obj 253 36 inlet~;
#X obj 252 269 outlet~;
#X obj 325 267 outlet~;
#X obj 103 104 cnv 15 74 142 empty empty empty 20 12 0 14 -233017 -66577
0;
#X obj 110 147 knob 24 24 0 127 0 1 empty empty empty 0 -8 0 8 -262144
-1 -1 0 1;
#X obj 252 233 *~;
#X obj 361 117 maxlib/scale 0 127 32 -32 0;
#X obj 324 230 *~;
#X obj 338 196 *~ -1;
#X text 101 232 OUT1;
#X text 151 232 OUT2;
#X text 117 120 ST-RING;
#X obj 339 171 osc~;
#X text 101 99 AUDIO;
#X text 145 99 PITCH;
#X obj 340 37 inlet~;
#X obj 340 142 lop~;
#X text 107 170 SLEW;
#X obj 341 85 +~ 0;
#X obj 139 181 vradio 12 1 0 3 empty empty OCTAVE -4 42 0 10 -262144
-1 -1 0;
#X text 151 178 +1;
#X text 156 190 0;
#X text 151 201 -1;
#N canvas 668 255 450 300 scale 0;
#X obj 90 31 inlet;
#X obj 100 105 sel 0 1;
#X msg 107 167 0;
#X msg 92 140 12;
#X msg 134 197 -12;
#X obj 106 234 / 127;
#X obj 106 258 outlet;
#X connect 0 0 1 0;
#X connect 1 0 3 0;
#X connect 1 1 2 0;
#X connect 1 2 4 0;
#X connect 2 0 5 0;
#X connect 3 0 5 0;
#X connect 4 0 5 0;
#X connect 5 0 6 0;
#X restore 362 59 pd scale;
#X text 113 17 Created by Maciej Odrowaz Sypniewski;
#X connect 0 0 5 0;
#X connect 0 0 7 0;
#X connect 4 0 6 0;
#X connect 5 0 1 0;
#X connect 6 0 16 1;
#X connect 7 0 2 0;
#X connect 8 0 7 1;
#X connect 12 0 8 0;
#X connect 12 0 5 1;
#X connect 15 0 18 0;
#X connect 16 0 12 0;
#X connect 18 0 16 0;
#X connect 19 0 23 0;
#X connect 23 0 18 1;
#X coords 0 -1 1 1 80 150 1 100 100;
#X restore 48 50 pd st-ring;
